<?xml version="1.0" encoding="UTF-8" standalone="no"?>
<!-- Generator: Adobe Illustrator 16.0.0, SVG Export Plug-In . SVG Version: 6.00 Build 0)  -->

<svg
   xmlns:dc="http://purl.org/dc/elements/1.1/"
   xmlns:cc="http://creativecommons.org/ns#"
   xmlns:rdf="http://www.w3.org/1999/02/22-rdf-syntax-ns#"
   xmlns:svg="http://www.w3.org/2000/svg"
   xmlns="http://www.w3.org/2000/svg"
   xmlns:xlink="http://www.w3.org/1999/xlink"
   xmlns:sodipodi="http://sodipodi.sourceforge.net/DTD/sodipodi-0.dtd"
   xmlns:inkscape="http://www.inkscape.org/namespaces/inkscape"
   version="1.1"
   id="Layer_1"
   x="0px"
   y="0px"
   width="256"
   height="256"
   viewBox="0 0 255.99999 255.99999"
   enable-background="new 0 0 79.37 79.37"
   xml:space="preserve"
   inkscape:version="0.48.3.1 r9886"
   sodipodi:docname="github.svg"
   inkscape:export-filename="/home/woursler/Personal-Website/src/static/img/github.png"
   inkscape:export-xdpi="90"
   inkscape:export-ydpi="90"><metadata
   id="metadata87"><rdf:RDF><cc:Work
       rdf:about=""><dc:format>image/svg+xml</dc:format><dc:type
         rdf:resource="http://purl.org/dc/dcmitype/StillImage" /><dc:title></dc:title></cc:Work></rdf:RDF></metadata><defs
   id="defs85"><linearGradient
     id="linearGradient3871"><stop
       style="stop-color:#ffffff;stop-opacity:1;"
       offset="0"
       id="stop3873" /><stop
       style="stop-color:#cccccc;stop-opacity:1;"
       offset="1"
       id="stop3875" /></linearGradient><linearGradient
     inkscape:collect="always"
     xlink:href="#linearGradient3871"
     id="linearGradient3877"
     x1="127.14471"
     y1="12.077716"
     x2="128.85527"
     y2="246.74965"
     gradientUnits="userSpaceOnUse" /></defs><sodipodi:namedview
   pagecolor="#ffffff"
   bordercolor="#666666"
   borderopacity="1"
   objecttolerance="10"
   gridtolerance="10"
   guidetolerance="10"
   inkscape:pageopacity="0"
   inkscape:pageshadow="2"
   inkscape:window-width="1024"
   inkscape:window-height="524"
   id="namedview83"
   showgrid="false"
   width="256px"
   inkscape:zoom="1.0610557"
   inkscape:cx="164.17465"
   inkscape:cy="162.59671"
   inkscape:window-x="0"
   inkscape:window-y="24"
   inkscape:window-maximized="1"
   inkscape:current-layer="Layer_1" />
<path
   d="m 249.99209,227.88843 c 0,9.84849 -8.59291,20.72368 -18.28117,20.72368 H 28.898153 c -9.031048,0 -20.8642728,-11.67956 -20.8642728,-20.71061 V 21.907279 c 0,-6.5395 11.0550238,-15.2566518 17.5945218,-15.2566518 H 234.89239 c 6.53949,0 15.0997,8.7171518 15.0997,15.2566518 V 227.88843 z"
   id="path28"
   inkscape:connector-curvature="0"
   style="fill:url(#SVGID_3_)" />
<linearGradient
   id="SVGID_2_"
   gradientUnits="userSpaceOnUse"
   x1="39.4697"
   y1="77.283699"
   x2="39.4697"
   y2="1.2837"
   gradientTransform="matrix(3.2697497,0,0,3.2697497,-0.04240128,-0.81748092)">
	<stop
   offset="0"
   style="stop-color:#587d93;stop-opacity:1;"
   id="stop17" />
	<stop
   offset="1"
   style="stop-color:#829aa9;stop-opacity:1;"
   id="stop19" />
</linearGradient>
<path
   d="M 231.62262,3.3808776 H 28.898153 C 16.2573,3.3808776 4.7641307,8.8282801 4.7641307,25.177029 V 227.9015 c 0,12.63759 11.4931693,23.98034 24.1340223,23.98034 H 231.62262 c 12.6376,0 21.63921,-11.34275 21.63921,-23.98034 V 25.177029 c 0,-16.3487489 -9.00161,-21.7961514 -21.63921,-21.7961514 z M 249.99209,224.63176 c 0,13.10516 -8.59291,23.98035 -21.63921,23.98035 H 32.167902 c -13.350388,0 -24.1340218,-10.63324 -24.1340218,-23.98035 V 28.446777 c 0,-16.348747 7.7852738,-21.7961498 24.1340218,-21.7961498 H 228.35288 c 16.34874,0 21.63921,5.4474028 21.63921,21.7961498 V 224.63176 z"
   id="path21"
   inkscape:connector-curvature="0"
   style="fill:url(#SVGID_2_)" />
<linearGradient
   id="SVGID_3_"
   gradientUnits="userSpaceOnUse"
   x1="39.4697"
   y1="76.283699"
   x2="39.4697"
   y2="2.2837"
   gradientTransform="matrix(3.2697497,0,0,3.2697497,-0.04240128,-0.81748092)">
	<stop
   offset="0"
   style="stop-color:#537489;stop-opacity:1;"
   id="stop24" />
	<stop
   offset="1"
   style="stop-color:#9cafba;stop-opacity:1;"
   id="stop26" />
</linearGradient>

<path
   id="highlight_3_"
   d="m 25.38644,8.8282801 h 209.42092 c 9.38092,0 16.82614,6.9612979 16.82614,16.3487489 V 22.302918 C 251.92777,12.385768 244.18828,5.5585316 234.80736,5.5585316 H 25.38644 c -8.158023,0 -16.391253,7.0626584 -16.1100549,16.3487474 v 3.26975 C 9.2796397,15.789578 16.00226,8.8282801 25.38644,8.8282801 z"
   inkscape:connector-curvature="0"
   style="fill:#c0ccd3;fill-opacity:1" />


<linearGradient
   id="SVGID_5_"
   gradientUnits="userSpaceOnUse"
   x1="1.4692"
   y1="27.450701"
   x2="2.4691999"
   y2="27.450701">
	<stop
   offset="0"
   style="stop-color:#F2F2F2"
   id="stop54" />
	<stop
   offset="1"
   style="stop-color:#F2F2F2"
   id="stop56" />
</linearGradient>

<linearGradient
   id="SVGID_6_"
   gradientUnits="userSpaceOnUse"
   x1="1.5488"
   y1="63.7593"
   x2="2.4691999"
   y2="63.7593">
	<stop
   offset="0"
   style="stop-color:#E7E7E7"
   id="stop61" />
	<stop
   offset="0.1394"
   style="stop-color:#E9E9E9"
   id="stop63" />
	<stop
   offset="1"
   style="stop-color:#F2F2F2"
   id="stop65" />
</linearGradient>


<g
   id="g71"
   transform="matrix(3.2697497,0,0,3.2697497,-0.04240128,-0.81748092)">
</g>
<g
   id="g73"
   transform="matrix(3.2697497,0,0,3.2697497,-0.04240128,-0.81748092)">
</g>
<g
   id="g75"
   transform="matrix(3.2697497,0,0,3.2697497,-0.04240128,-0.81748092)">
</g>
<g
   id="g77"
   transform="matrix(3.2697497,0,0,3.2697497,-0.04240128,-0.81748092)">
</g>
<g
   id="g79"
   transform="matrix(3.2697497,0,0,3.2697497,-0.04240128,-0.81748092)">
</g>
<g
   id="g81"
   transform="matrix(3.2697497,0,0,3.2697497,-0.04240128,-0.81748092)">
</g>
<path
   inkscape:connector-curvature="0"
   style="fill:url(#linearGradient3877);fill-opacity:1"
   d="M 128.00006,11.222379 C 63.505567,11.222379 11.222437,63.505509 11.222437,128 c 0,2.92684 0.187536,5.79428 0.399142,8.66709 -0.01885,0.004 -0.03817,-0.004 -0.05702,0 0.02288,0.31154 0.03169,0.60145 0.05702,0.91232 0.01885,-0.004 0.03817,0.004 0.05702,0 0.217876,2.67415 0.460277,5.36272 0.855304,7.98285 0.0115,0.0763 0.04538,0.15181 0.05702,0.22808 0.03576,0.22965 0.02053,0.45454 0.05702,0.68424 0.01825,-0.004 0.03877,0.004 0.05702,0 8.853934,55.71748 57.085939,98.30303 115.295097,98.30303 58.20915,0 106.44115,-42.58555 115.29508,-98.30303 0.0182,0.004 0.0389,-0.004 0.0569,0 0.0363,-0.22764 0.0212,-0.45673 0.0569,-0.68424 0.011,-0.0763 0.0456,-0.15181 0.0569,-0.22808 0.39225,-2.60165 0.6377,-5.27091 0.85531,-7.92583 0.0188,0.004 0.0383,-0.004 0.0569,0 0.0255,-0.31369 0.0339,-0.65496 0.0569,-0.96934 -0.0188,-0.004 -0.0381,0.004 -0.0569,0 0.21197,-2.87281 0.3995,-5.74025 0.3995,-8.66709 0,-64.494491 -52.28313,-116.777621 -116.77761,-116.777621 z m 0,11.632146 c 58.06361,0 105.14547,47.081855 105.14547,105.145475 0,2.43264 -0.12244,4.85015 -0.2851,7.24158 -13.63611,-1.29373 -26.26147,-1.21659 -34.95346,-0.85531 2.08149,-7.50084 2.73697,-16.09144 2.73697,-25.71616 0,-13.803824 -5.20837,-24.896805 -13.62785,-33.299867 1.47134,-4.749036 3.46013,-15.293635 -1.9387,-28.795263 0,0 -9.53129,-3.015636 -31.07607,11.404064 -8.43944,-2.109368 -17.40497,-3.136117 -26.40041,-3.136117 -9.8971,0 -19.92427,1.261654 -29.251417,3.820361 C 82.370007,47.761714 72.814988,46.306355 68.698923,46.346898 67.088286,46.363318 66.30407,46.632 66.30407,46.632 c -6.406366,16.020686 -2.457786,27.845278 -1.254447,30.790975 -7.52984,8.126573 -12.145329,18.528503 -12.145329,31.247135 0,9.60174 1.150058,18.17253 3.820361,25.65914 -8.620414,-0.31358 -20.652962,-0.31459 -33.58497,0.91233 -0.162631,-2.39143 -0.285102,-4.80894 -0.285102,-7.24158 0,-58.06362 47.081855,-105.145475 105.145477,-105.145475 z M 47.715444,135.07052 c 3.425033,0.0109 6.570365,0.1228 9.351333,0.22808 0.588268,1.54984 1.203832,3.05158 1.938691,4.5046 -8.580181,0.27627 -21.311989,1.12871 -35.067499,3.47824 -0.342045,-2.3504 -0.557467,-4.72945 -0.741264,-7.12754 8.859991,-0.84238 17.332865,-1.10842 24.518739,-1.08338 z m 159.371796,0.0569 c 7.45182,-0.0549 16.34951,0.19315 25.71617,1.08338 -0.18362,2.37894 -0.4019,4.73855 -0.74127,7.07052 -14.23574,-2.43257 -27.40386,-3.28565 -35.97982,-3.53526 0.58826,-1.42266 1.14066,-2.86808 1.59657,-4.39056 2.77275,-0.11532 5.91564,-0.20238 9.40835,-0.22808 z m -147.568588,5.58799 c 7.50548,13.99061 22.313047,23.04956 48.638328,25.88722 -3.73633,2.51114 -7.57861,6.74809 -9.123244,13.96998 -5.091449,2.43538 -21.177604,8.36534 -30.847995,-8.26794 0,0 -5.433152,-9.88775 -15.794629,-10.6628 0,0 -10.041489,-0.14525 -0.684244,6.27223 0,0 6.706575,3.14369 11.347044,15.05336 0,0 6.027204,20.31604 35.23856,13.79892 l 0,20.98348 c 0,0 -0.540626,6.23726 -5.873093,9.18027 -35.651935,-12.82694 -62.373996,-44.33134 -68.310348,-82.73648 13.940657,-2.38238 26.866134,-3.21679 35.409621,-3.47824 z m 136.164518,0 c 8.52802,0.23441 21.82133,1.02313 36.20791,3.47824 -5.93635,38.40514 -32.65843,69.90954 -68.31034,82.73648 -5.33333,-2.94301 -5.8731,-9.18027 -5.8731,-9.18027 l 0,-29.99269 c 0,-11.69526 -4.93471,-17.88531 -9.75047,-21.15454 28.07474,-2.78407 41.51818,-11.80225 47.726,-25.88722 z m -69.22266,41.16867 3.07909,0 0.34213,38.03255 c 0.26087,6.39752 2.71272,10.42748 5.47395,12.94361 -2.42841,0.16769 -4.88466,0.28511 -7.35562,0.28511 -2.47098,0 -4.92722,-0.11733 -7.35563,-0.28511 2.76289,-2.51612 5.2125,-6.54598 5.47396,-12.94361 l 0.34212,-38.03255 z m -12.65851,1.08338 0,37.57639 c 0,0 -0.25489,7.16188 -3.59229,11.11897 -2.56096,-0.43631 -5.08938,-0.97858 -7.5837,-1.59657 3.96754,-1.83471 7.46966,-5.33825 7.46966,-11.97427 l 0,-22.86515 c 0,0 -0.75091,-9.10528 3.70633,-12.25937 z m 28.45314,0.34212 c 4.45504,3.46941 3.70632,11.91725 3.70632,11.91725 l 0,22.86515 c 0,6.63636 3.4451,10.13781 7.41264,11.97427 -2.49432,0.61799 -5.02273,1.16026 -7.5837,1.59657 -3.33563,-3.95694 -3.53526,-11.11897 -3.53526,-11.11897 l 0,-37.23427 z"
   id="circle3" /></svg>