<?xml version="1.0" encoding="UTF-8" standalone="no"?>
<!-- Created with Inkscape (http://www.inkscape.org/) -->

<svg
   xmlns:dc="http://purl.org/dc/elements/1.1/"
   xmlns:cc="http://creativecommons.org/ns#"
   xmlns:rdf="http://www.w3.org/1999/02/22-rdf-syntax-ns#"
   xmlns:svg="http://www.w3.org/2000/svg"
   xmlns="http://www.w3.org/2000/svg"
   xmlns:xlink="http://www.w3.org/1999/xlink"
   xmlns:sodipodi="http://sodipodi.sourceforge.net/DTD/sodipodi-0.dtd"
   xmlns:inkscape="http://www.inkscape.org/namespaces/inkscape"
   id="svg2"
   version="1.1"
   inkscape:version="0.48.3.1 r9886"
   width="12"
   height="25"
   sodipodi:docname="pagination.svg">
  <metadata
     id="metadata8">
    <rdf:RDF>
      <cc:Work
         rdf:about="">
        <dc:format>image/svg+xml</dc:format>
        <dc:type
           rdf:resource="http://purl.org/dc/dcmitype/StillImage" />
        <dc:title></dc:title>
      </cc:Work>
    </rdf:RDF>
  </metadata>
  <defs
     id="defs6">
    <linearGradient
       id="linearGradient3817">
      <stop
         style="stop-color:#ffffff;stop-opacity:0.53846157;"
         offset="0"
         id="stop3819" />
      <stop
         style="stop-color:#b1b1b1;stop-opacity:0.17692308;"
         offset="1"
         id="stop3821" />
    </linearGradient>
    <linearGradient
       id="linearGradient3775">
      <stop
         style="stop-color:#252525;stop-opacity:0.73846155;"
         offset="0"
         id="stop3777" />
      <stop
         style="stop-color:#a3a3a3;stop-opacity:0.3923077;"
         offset="1"
         id="stop3779" />
    </linearGradient>
    <linearGradient
       inkscape:collect="always"
       xlink:href="#linearGradient3775-5"
       id="linearGradient3781-5"
       x1="1.7986031"
       y1="1.5023519"
       x2="11.123331"
       y2="11.101336"
       gradientUnits="userSpaceOnUse" />
    <linearGradient
       id="linearGradient3775-5">
      <stop
         style="stop-color:#000000;stop-opacity:0.50196081;"
         offset="0"
         id="stop3777-5" />
      <stop
         style="stop-color:#8b8b8b;stop-opacity:0.50196081;"
         offset="1"
         id="stop3779-2" />
    </linearGradient>
  </defs>
  <sodipodi:namedview
     pagecolor="#ffffff"
     bordercolor="#666666"
     borderopacity="1"
     objecttolerance="10"
     gridtolerance="10"
     guidetolerance="10"
     inkscape:pageopacity="0"
     inkscape:pageshadow="2"
     inkscape:window-width="1024"
     inkscape:window-height="524"
     id="namedview4"
     showgrid="false"
     inkscape:zoom="18.884588"
     inkscape:cx="-0.041223764"
     inkscape:cy="10.381871"
     inkscape:window-x="0"
     inkscape:window-y="24"
     inkscape:window-maximized="1"
     inkscape:current-layer="svg2" />
  <path
     sodipodi:type="arc"
     style="fill:#828282;fill-opacity:1;stroke:none"
     id="path2987-2"
     sodipodi:cx="6.25"
     sodipodi:cy="6.0381355"
     sodipodi:rx="4.9788136"
     sodipodi:ry="4.9788136"
     d="m 11.228814,6.0381355 a 4.9788136,4.9788136 0 1 1 -9.9576276,0 4.9788136,4.9788136 0 1 1 9.9576276,0 z"
     transform="matrix(1.0042553,0,0,1.0042553,-0.27659563,-0.0638296)" />
  <path
     style="fill:#ffffff;fill-opacity:0.06849317;stroke:none"
     d="M 1.7008891,4.837034 C 1.5029507,5.438756 1.320866,6.437426 1.7210566,6.496576 2.3142333,6.58425 2.2771029,6.205858 2.4745521,6.027998 2.6535934,5.86672 4.233652,2.6136335 6.9557524,2.7444374 7.2733207,2.7596974 7.7898414,2.2069739 7.5185135,2.0108718 5.4516265,0.5170307 2.201989,3.3137191 1.7008891,4.837034 z"
     id="path3825"
     inkscape:connector-curvature="0"
     sodipodi:nodetypes="ssssss" />
  <path
     style="fill:#1d1d1d;fill-opacity:0.15068497;stroke:none"
     d="M 10.251244,7.121182 C 10.449183,6.519461 10.631268,5.520791 10.231074,5.461641 9.6378971,5.373971 9.6750275,5.752359 9.4775783,5.930219 9.298537,6.091497 7.7184784,9.344583 4.996378,9.213779 4.6788097,9.198519 4.162289,9.751243 4.4336169,9.947345 6.5005039,11.441186 9.7501414,8.644498 10.251241,7.121182 z"
     id="path3825-0"
     inkscape:connector-curvature="0"
     sodipodi:nodetypes="ssssss" />
  <path
     sodipodi:type="arc"
     style="fill:#3b3b3b;fill-opacity:0.06849317;stroke:none"
     id="path3897"
     sodipodi:cx="6.0101919"
     sodipodi:cy="5.9368358"
     sodipodi:rx="1.6680269"
     sodipodi:ry="1.9592696"
     d="m 7.6782188,5.9368358 a 1.6680269,1.9592696 0 1 1 -3.3360538,0 1.6680269,1.9592696 0 1 1 3.3360538,0 z"
     transform="matrix(2.3980428,0,0,2.0415771,-8.4126975,-6.120508)" />
  <path
     sodipodi:type="arc"
     style="fill:#457016;fill-opacity:1;stroke:none"
     id="path2987-2-5"
     sodipodi:cx="6.25"
     sodipodi:cy="6.0381355"
     sodipodi:rx="4.9788136"
     sodipodi:ry="4.9788136"
     d="m 11.228814,6.0381355 a 4.9788136,4.9788136 0 1 1 -9.9576276,0 4.9788136,4.9788136 0 1 1 9.9576276,0 z"
     transform="matrix(1.0042553,0,0,1.0042553,-0.27659563,11.93617)" />
  <path
     style="fill:#ffffff;fill-opacity:0.06849317;stroke:none"
     d="m 1.7008891,16.837034 c -0.1979384,0.601722 -0.3800231,1.600392 0.020168,1.659542 0.5931767,0.08767 0.5560463,-0.290718 0.7534955,-0.468578 0.1790413,-0.161278 1.7590999,-3.414364 4.4812003,-3.283561 0.3175683,0.01526 0.834089,-0.537463 0.5627611,-0.733565 -2.066887,-1.493841 -5.3165245,1.302847 -5.8176244,2.826162 z"
     id="path3825-8"
     inkscape:connector-curvature="0"
     sodipodi:nodetypes="ssssss" />
  <path
     style="fill:#1d1d1d;fill-opacity:0.15068497;stroke:none"
     d="m 10.251244,19.121182 c 0.197939,-0.601721 0.380024,-1.600391 -0.02017,-1.659541 -0.5931769,-0.08767 -0.5560465,0.290718 -0.7534957,0.468578 -0.1790413,0.161278 -1.7590999,3.414364 -4.4812003,3.28356 -0.3175683,-0.01526 -0.834089,0.537464 -0.5627611,0.733566 2.066887,1.493841 5.3165245,-1.302847 5.8176241,-2.826163 z"
     id="path3825-0-3"
     inkscape:connector-curvature="0"
     sodipodi:nodetypes="ssssss" />
  <path
     sodipodi:type="arc"
     style="fill:#3b3b3b;fill-opacity:0.06849317;stroke:none"
     id="path3897-0"
     sodipodi:cx="6.0101919"
     sodipodi:cy="5.9368358"
     sodipodi:rx="1.6680269"
     sodipodi:ry="1.9592696"
     d="m 7.6782188,5.9368358 a 1.6680269,1.9592696 0 1 1 -3.3360538,0 1.6680269,1.9592696 0 1 1 3.3360538,0 z"
     transform="matrix(2.3980428,0,0,2.0415771,-8.4126975,5.879492)" />
</svg>
